%TF.GenerationSoftware,KiCad,Pcbnew,(5.1.6)-1*%
%TF.CreationDate,2022-09-06T14:02:24-04:00*%
%TF.ProjectId,TinyTurbo286Sch,54696e79-5475-4726-926f-323836536368,rev?*%
%TF.SameCoordinates,Original*%
%TF.FileFunction,Soldermask,Bot*%
%TF.FilePolarity,Negative*%
%FSLAX46Y46*%
G04 Gerber Fmt 4.6, Leading zero omitted, Abs format (unit mm)*
G04 Created by KiCad (PCBNEW (5.1.6)-1) date 2022-09-06 14:02:24*
%MOMM*%
%LPD*%
G01*
G04 APERTURE LIST*
%ADD10O,1.600000X1.600000*%
%ADD11R,1.600000X1.600000*%
%ADD12C,3.200000*%
%ADD13R,1.700000X1.700000*%
%ADD14O,1.700000X1.700000*%
%ADD15C,1.316000*%
%ADD16C,1.600000*%
%ADD17R,1.780000X7.620000*%
%ADD18C,2.781000*%
%ADD19R,1.200000X1.200000*%
%ADD20C,1.200000*%
%ADD21C,1.422400*%
%ADD22R,1.422400X1.422400*%
G04 APERTURE END LIST*
D10*
%TO.C,UD4*%
X171831000Y-72390000D03*
X194691000Y-80010000D03*
X174371000Y-72390000D03*
X192151000Y-80010000D03*
X176911000Y-72390000D03*
X189611000Y-80010000D03*
X179451000Y-72390000D03*
X187071000Y-80010000D03*
X181991000Y-72390000D03*
X184531000Y-80010000D03*
X184531000Y-72390000D03*
X181991000Y-80010000D03*
X187071000Y-72390000D03*
X179451000Y-80010000D03*
X189611000Y-72390000D03*
X176911000Y-80010000D03*
X192151000Y-72390000D03*
X174371000Y-80010000D03*
X194691000Y-72390000D03*
D11*
X171831000Y-80010000D03*
%TD*%
D12*
%TO.C,P7*%
X212217000Y-88519000D03*
%TD*%
%TO.C,P6*%
X212217000Y-145034000D03*
%TD*%
D13*
%TO.C,J1*%
X184404000Y-100584000D03*
D14*
X184404000Y-98044000D03*
X181864000Y-100584000D03*
X181864000Y-98044000D03*
X179324000Y-100584000D03*
X179324000Y-98044000D03*
X176784000Y-100584000D03*
X176784000Y-98044000D03*
X174244000Y-100584000D03*
X174244000Y-98044000D03*
X171704000Y-100584000D03*
X171704000Y-98044000D03*
X169164000Y-100584000D03*
X169164000Y-98044000D03*
X166624000Y-100584000D03*
X166624000Y-98044000D03*
X164084000Y-100584000D03*
X164084000Y-98044000D03*
X161544000Y-100584000D03*
X161544000Y-98044000D03*
X159004000Y-100584000D03*
X159004000Y-98044000D03*
X156464000Y-100584000D03*
X156464000Y-98044000D03*
X153924000Y-100584000D03*
X153924000Y-98044000D03*
X151384000Y-100584000D03*
X151384000Y-98044000D03*
X148844000Y-100584000D03*
X148844000Y-98044000D03*
X146304000Y-100584000D03*
X146304000Y-98044000D03*
X143764000Y-100584000D03*
X143764000Y-98044000D03*
X141224000Y-100584000D03*
X141224000Y-98044000D03*
X138684000Y-100584000D03*
X138684000Y-98044000D03*
X136144000Y-100584000D03*
X136144000Y-98044000D03*
%TD*%
D15*
%TO.C,C1*%
X109093000Y-65659000D03*
X109093000Y-68199000D03*
%TD*%
D11*
%TO.C,C2*%
X71882000Y-141304000D03*
D16*
X71882000Y-146304000D03*
%TD*%
%TO.C,C3*%
X200025000Y-146304000D03*
D11*
X200025000Y-141304000D03*
%TD*%
D15*
%TO.C,C4*%
X77597000Y-78613000D03*
X80137000Y-78613000D03*
%TD*%
%TO.C,C5*%
X71882000Y-130048000D03*
X71882000Y-132588000D03*
%TD*%
%TO.C,C6*%
X109093000Y-55626000D03*
X109093000Y-53086000D03*
%TD*%
%TO.C,C7*%
X104648000Y-84582000D03*
X104648000Y-82042000D03*
%TD*%
%TO.C,C8*%
X104648000Y-97028000D03*
X104648000Y-94488000D03*
%TD*%
%TO.C,C9*%
X104648000Y-106680000D03*
X104648000Y-109220000D03*
%TD*%
%TO.C,C10*%
X104648000Y-118999000D03*
X104648000Y-121539000D03*
%TD*%
%TO.C,C11*%
X104648000Y-133731000D03*
X104648000Y-131191000D03*
%TD*%
%TO.C,C12*%
X136779000Y-121666000D03*
X136779000Y-124206000D03*
%TD*%
%TO.C,C13*%
X136779000Y-136398000D03*
X136779000Y-133858000D03*
%TD*%
%TO.C,C14*%
X168148000Y-48895000D03*
X168148000Y-46355000D03*
%TD*%
%TO.C,C15*%
X168148000Y-60325000D03*
X168148000Y-62865000D03*
%TD*%
%TO.C,C16*%
X168021000Y-72390000D03*
X168021000Y-74930000D03*
%TD*%
%TO.C,C17*%
X168021000Y-87376000D03*
X168021000Y-84836000D03*
%TD*%
%TO.C,C18*%
X168021000Y-121666000D03*
X168021000Y-124206000D03*
%TD*%
%TO.C,C19*%
X168021000Y-133731000D03*
X168021000Y-136271000D03*
%TD*%
D17*
%TO.C,J2*%
X190500000Y-153670000D03*
X187960000Y-153670000D03*
X185420000Y-153670000D03*
X182880000Y-153670000D03*
X180340000Y-153670000D03*
X177800000Y-153670000D03*
X175260000Y-153670000D03*
X172720000Y-153670000D03*
X170180000Y-153670000D03*
X167640000Y-153670000D03*
X165100000Y-153670000D03*
X162560000Y-153670000D03*
X160020000Y-153670000D03*
X157480000Y-153670000D03*
X154940000Y-153670000D03*
X152400000Y-153670000D03*
X149860000Y-153670000D03*
X147320000Y-153670000D03*
X144780000Y-153670000D03*
X142240000Y-153670000D03*
X139700000Y-153670000D03*
X137160000Y-153670000D03*
X134620000Y-153670000D03*
X132080000Y-153670000D03*
X129540000Y-153670000D03*
X127000000Y-153670000D03*
X124460000Y-153670000D03*
X121920000Y-153670000D03*
X119380000Y-153670000D03*
X116840000Y-153670000D03*
X114300000Y-153670000D03*
%TD*%
D16*
%TO.C,R1*%
X75184000Y-73152000D03*
D10*
X82804000Y-73152000D03*
%TD*%
D11*
%TO.C,RP1*%
X206883000Y-37719000D03*
D10*
X206883000Y-40259000D03*
X206883000Y-42799000D03*
X206883000Y-45339000D03*
X206883000Y-47879000D03*
X206883000Y-50419000D03*
X206883000Y-52959000D03*
X206883000Y-55499000D03*
X206883000Y-58039000D03*
X206883000Y-60579000D03*
%TD*%
D11*
%TO.C,RP2*%
X141605000Y-117221000D03*
D10*
X144145000Y-117221000D03*
X146685000Y-117221000D03*
X149225000Y-117221000D03*
X151765000Y-117221000D03*
X154305000Y-117221000D03*
X156845000Y-117221000D03*
X159385000Y-117221000D03*
X161925000Y-117221000D03*
X164465000Y-117221000D03*
%TD*%
%TO.C,RP3*%
X194564000Y-117221000D03*
X192024000Y-117221000D03*
X189484000Y-117221000D03*
X186944000Y-117221000D03*
X184404000Y-117221000D03*
X181864000Y-117221000D03*
X179324000Y-117221000D03*
X176784000Y-117221000D03*
X174244000Y-117221000D03*
D11*
X171704000Y-117221000D03*
%TD*%
D18*
%TO.C,SW1*%
X199136000Y-106426000D03*
X199136000Y-101726000D03*
X199136000Y-97026000D03*
X202946000Y-106426000D03*
X202946000Y-101726000D03*
X202946000Y-97026000D03*
X215646000Y-104266000D03*
X215646000Y-99186000D03*
%TD*%
D19*
%TO.C,SW2*%
X202847000Y-121285000D03*
D20*
X202847000Y-123825000D03*
X202847000Y-126365000D03*
X202847000Y-128905000D03*
X210947000Y-128905000D03*
X210947000Y-126365000D03*
X210947000Y-123825000D03*
X210947000Y-121285000D03*
%TD*%
D21*
%TO.C,UA2*%
X100330000Y-54102000D03*
X100330000Y-51562000D03*
X100330000Y-49022000D03*
X100330000Y-46482000D03*
X100330000Y-56642000D03*
X100330000Y-59182000D03*
X100330000Y-61722000D03*
X100330000Y-64262000D03*
D22*
X102870000Y-54102000D03*
D21*
X102870000Y-51562000D03*
X102870000Y-49022000D03*
X102870000Y-46482000D03*
X102870000Y-43942000D03*
X102870000Y-56642000D03*
X102870000Y-59182000D03*
X102870000Y-61722000D03*
X100330000Y-43942000D03*
X97790000Y-43942000D03*
X95250000Y-43942000D03*
X92710000Y-43942000D03*
X90170000Y-43942000D03*
X87630000Y-43942000D03*
X85090000Y-43942000D03*
X82550000Y-43942000D03*
X100330000Y-41402000D03*
X97790000Y-41402000D03*
X95250000Y-41402000D03*
X92710000Y-41402000D03*
X90170000Y-41402000D03*
X87630000Y-41402000D03*
X85090000Y-41402000D03*
X82550000Y-41402000D03*
X80010000Y-41402000D03*
X80010000Y-43942000D03*
X80010000Y-46482000D03*
X80010000Y-49022000D03*
X80010000Y-51562000D03*
X80010000Y-54102000D03*
X80010000Y-56642000D03*
X80010000Y-59182000D03*
X80010000Y-61722000D03*
X80010000Y-66802000D03*
X77470000Y-43942000D03*
X77470000Y-46482000D03*
X77470000Y-49022000D03*
X77470000Y-51562000D03*
X77470000Y-54102000D03*
X77470000Y-56642000D03*
X77470000Y-59182000D03*
X77470000Y-61722000D03*
X77470000Y-64262000D03*
X80010000Y-64262000D03*
X82550000Y-64262000D03*
X85090000Y-64262000D03*
X87630000Y-64262000D03*
X90170000Y-64262000D03*
X92710000Y-64262000D03*
X95250000Y-64262000D03*
X97790000Y-64262000D03*
X102870000Y-64262000D03*
X82550000Y-66802000D03*
X85090000Y-66802000D03*
X87630000Y-66802000D03*
X90170000Y-66802000D03*
X92710000Y-66802000D03*
X95250000Y-66802000D03*
X97790000Y-66802000D03*
X100330000Y-66802000D03*
%TD*%
D11*
%TO.C,UA5*%
X77470000Y-92329000D03*
D10*
X100330000Y-84709000D03*
X80010000Y-92329000D03*
X97790000Y-84709000D03*
X82550000Y-92329000D03*
X95250000Y-84709000D03*
X85090000Y-92329000D03*
X92710000Y-84709000D03*
X87630000Y-92329000D03*
X90170000Y-84709000D03*
X90170000Y-92329000D03*
X87630000Y-84709000D03*
X92710000Y-92329000D03*
X85090000Y-84709000D03*
X95250000Y-92329000D03*
X82550000Y-84709000D03*
X97790000Y-92329000D03*
X80010000Y-84709000D03*
X100330000Y-92329000D03*
X77470000Y-84709000D03*
%TD*%
%TO.C,UA6*%
X77470000Y-97028000D03*
X100330000Y-104648000D03*
X80010000Y-97028000D03*
X97790000Y-104648000D03*
X82550000Y-97028000D03*
X95250000Y-104648000D03*
X85090000Y-97028000D03*
X92710000Y-104648000D03*
X87630000Y-97028000D03*
X90170000Y-104648000D03*
X90170000Y-97028000D03*
X87630000Y-104648000D03*
X92710000Y-97028000D03*
X85090000Y-104648000D03*
X95250000Y-97028000D03*
X82550000Y-104648000D03*
X97790000Y-97028000D03*
X80010000Y-104648000D03*
X100330000Y-97028000D03*
D11*
X77470000Y-104648000D03*
%TD*%
%TO.C,UA7*%
X77470000Y-116967000D03*
D10*
X100330000Y-109347000D03*
X80010000Y-116967000D03*
X97790000Y-109347000D03*
X82550000Y-116967000D03*
X95250000Y-109347000D03*
X85090000Y-116967000D03*
X92710000Y-109347000D03*
X87630000Y-116967000D03*
X90170000Y-109347000D03*
X90170000Y-116967000D03*
X87630000Y-109347000D03*
X92710000Y-116967000D03*
X85090000Y-109347000D03*
X95250000Y-116967000D03*
X82550000Y-109347000D03*
X97790000Y-116967000D03*
X80010000Y-109347000D03*
X100330000Y-116967000D03*
X77470000Y-109347000D03*
%TD*%
%TO.C,UA8*%
X77470000Y-121539000D03*
X100330000Y-129159000D03*
X80010000Y-121539000D03*
X97790000Y-129159000D03*
X82550000Y-121539000D03*
X95250000Y-129159000D03*
X85090000Y-121539000D03*
X92710000Y-129159000D03*
X87630000Y-121539000D03*
X90170000Y-129159000D03*
X90170000Y-121539000D03*
X87630000Y-129159000D03*
X92710000Y-121539000D03*
X85090000Y-129159000D03*
X95250000Y-121539000D03*
X82550000Y-129159000D03*
X97790000Y-121539000D03*
X80010000Y-129159000D03*
X100330000Y-121539000D03*
D11*
X77470000Y-129159000D03*
%TD*%
D10*
%TO.C,UA9*%
X77470000Y-133731000D03*
X100330000Y-141351000D03*
X80010000Y-133731000D03*
X97790000Y-141351000D03*
X82550000Y-133731000D03*
X95250000Y-141351000D03*
X85090000Y-133731000D03*
X92710000Y-141351000D03*
X87630000Y-133731000D03*
X90170000Y-141351000D03*
X90170000Y-133731000D03*
X87630000Y-141351000D03*
X92710000Y-133731000D03*
X85090000Y-141351000D03*
X95250000Y-133731000D03*
X82550000Y-141351000D03*
X97790000Y-133731000D03*
X80010000Y-141351000D03*
X100330000Y-133731000D03*
D11*
X77470000Y-141351000D03*
%TD*%
%TO.C,UB1*%
X110998000Y-47244000D03*
D10*
X131318000Y-39624000D03*
X113538000Y-47244000D03*
X128778000Y-39624000D03*
X116078000Y-47244000D03*
X126238000Y-39624000D03*
X118618000Y-47244000D03*
X123698000Y-39624000D03*
X121158000Y-47244000D03*
X121158000Y-39624000D03*
X123698000Y-47244000D03*
X118618000Y-39624000D03*
X126238000Y-47244000D03*
X116078000Y-39624000D03*
X128778000Y-47244000D03*
X113538000Y-39624000D03*
X131318000Y-47244000D03*
X110998000Y-39624000D03*
%TD*%
D11*
%TO.C,UB2*%
X113538000Y-66548000D03*
D10*
X161798000Y-51308000D03*
X116078000Y-66548000D03*
X159258000Y-51308000D03*
X118618000Y-66548000D03*
X156718000Y-51308000D03*
X121158000Y-66548000D03*
X154178000Y-51308000D03*
X123698000Y-66548000D03*
X151638000Y-51308000D03*
X126238000Y-66548000D03*
X149098000Y-51308000D03*
X128778000Y-66548000D03*
X146558000Y-51308000D03*
X131318000Y-66548000D03*
X144018000Y-51308000D03*
X133858000Y-66548000D03*
X141478000Y-51308000D03*
X136398000Y-66548000D03*
X138938000Y-51308000D03*
X138938000Y-66548000D03*
X136398000Y-51308000D03*
X141478000Y-66548000D03*
X133858000Y-51308000D03*
X144018000Y-66548000D03*
X131318000Y-51308000D03*
X146558000Y-66548000D03*
X128778000Y-51308000D03*
X149098000Y-66548000D03*
X126238000Y-51308000D03*
X151638000Y-66548000D03*
X123698000Y-51308000D03*
X154178000Y-66548000D03*
X121158000Y-51308000D03*
X156718000Y-66548000D03*
X118618000Y-51308000D03*
X159258000Y-66548000D03*
X116078000Y-51308000D03*
X161798000Y-66548000D03*
X113538000Y-51308000D03*
%TD*%
D11*
%TO.C,UB4*%
X109093000Y-79883000D03*
D10*
X131953000Y-72263000D03*
X111633000Y-79883000D03*
X129413000Y-72263000D03*
X114173000Y-79883000D03*
X126873000Y-72263000D03*
X116713000Y-79883000D03*
X124333000Y-72263000D03*
X119253000Y-79883000D03*
X121793000Y-72263000D03*
X121793000Y-79883000D03*
X119253000Y-72263000D03*
X124333000Y-79883000D03*
X116713000Y-72263000D03*
X126873000Y-79883000D03*
X114173000Y-72263000D03*
X129413000Y-79883000D03*
X111633000Y-72263000D03*
X131953000Y-79883000D03*
X109093000Y-72263000D03*
%TD*%
D11*
%TO.C,UB5*%
X109093000Y-92329000D03*
D10*
X131953000Y-84709000D03*
X111633000Y-92329000D03*
X129413000Y-84709000D03*
X114173000Y-92329000D03*
X126873000Y-84709000D03*
X116713000Y-92329000D03*
X124333000Y-84709000D03*
X119253000Y-92329000D03*
X121793000Y-84709000D03*
X121793000Y-92329000D03*
X119253000Y-84709000D03*
X124333000Y-92329000D03*
X116713000Y-84709000D03*
X126873000Y-92329000D03*
X114173000Y-84709000D03*
X129413000Y-92329000D03*
X111633000Y-84709000D03*
X131953000Y-92329000D03*
X109093000Y-84709000D03*
%TD*%
%TO.C,UB6*%
X109093000Y-97028000D03*
X131953000Y-104648000D03*
X111633000Y-97028000D03*
X129413000Y-104648000D03*
X114173000Y-97028000D03*
X126873000Y-104648000D03*
X116713000Y-97028000D03*
X124333000Y-104648000D03*
X119253000Y-97028000D03*
X121793000Y-104648000D03*
X121793000Y-97028000D03*
X119253000Y-104648000D03*
X124333000Y-97028000D03*
X116713000Y-104648000D03*
X126873000Y-97028000D03*
X114173000Y-104648000D03*
X129413000Y-97028000D03*
X111633000Y-104648000D03*
X131953000Y-97028000D03*
D11*
X109093000Y-104648000D03*
%TD*%
%TO.C,UB7*%
X109093000Y-116967000D03*
D10*
X131953000Y-109347000D03*
X111633000Y-116967000D03*
X129413000Y-109347000D03*
X114173000Y-116967000D03*
X126873000Y-109347000D03*
X116713000Y-116967000D03*
X124333000Y-109347000D03*
X119253000Y-116967000D03*
X121793000Y-109347000D03*
X121793000Y-116967000D03*
X119253000Y-109347000D03*
X124333000Y-116967000D03*
X116713000Y-109347000D03*
X126873000Y-116967000D03*
X114173000Y-109347000D03*
X129413000Y-116967000D03*
X111633000Y-109347000D03*
X131953000Y-116967000D03*
X109093000Y-109347000D03*
%TD*%
%TO.C,UB8*%
X109093000Y-121539000D03*
X131953000Y-129159000D03*
X111633000Y-121539000D03*
X129413000Y-129159000D03*
X114173000Y-121539000D03*
X126873000Y-129159000D03*
X116713000Y-121539000D03*
X124333000Y-129159000D03*
X119253000Y-121539000D03*
X121793000Y-129159000D03*
X121793000Y-121539000D03*
X119253000Y-129159000D03*
X124333000Y-121539000D03*
X116713000Y-129159000D03*
X126873000Y-121539000D03*
X114173000Y-129159000D03*
X129413000Y-121539000D03*
X111633000Y-129159000D03*
X131953000Y-121539000D03*
D11*
X109093000Y-129159000D03*
%TD*%
D10*
%TO.C,UB9*%
X109093000Y-133731000D03*
X131953000Y-141351000D03*
X111633000Y-133731000D03*
X129413000Y-141351000D03*
X114173000Y-133731000D03*
X126873000Y-141351000D03*
X116713000Y-133731000D03*
X124333000Y-141351000D03*
X119253000Y-133731000D03*
X121793000Y-141351000D03*
X121793000Y-133731000D03*
X119253000Y-141351000D03*
X124333000Y-133731000D03*
X116713000Y-141351000D03*
X126873000Y-133731000D03*
X114173000Y-141351000D03*
X129413000Y-133731000D03*
X111633000Y-141351000D03*
X131953000Y-133731000D03*
D11*
X109093000Y-141351000D03*
%TD*%
%TO.C,UC1*%
X141478000Y-47244000D03*
D10*
X164338000Y-39624000D03*
X144018000Y-47244000D03*
X161798000Y-39624000D03*
X146558000Y-47244000D03*
X159258000Y-39624000D03*
X149098000Y-47244000D03*
X156718000Y-39624000D03*
X151638000Y-47244000D03*
X154178000Y-39624000D03*
X154178000Y-47244000D03*
X151638000Y-39624000D03*
X156718000Y-47244000D03*
X149098000Y-39624000D03*
X159258000Y-47244000D03*
X146558000Y-39624000D03*
X161798000Y-47244000D03*
X144018000Y-39624000D03*
X164338000Y-47244000D03*
X141478000Y-39624000D03*
%TD*%
D11*
%TO.C,UC4*%
X136398000Y-79883000D03*
D10*
X164338000Y-72263000D03*
X138938000Y-79883000D03*
X161798000Y-72263000D03*
X141478000Y-79883000D03*
X159258000Y-72263000D03*
X144018000Y-79883000D03*
X156718000Y-72263000D03*
X146558000Y-79883000D03*
X154178000Y-72263000D03*
X149098000Y-79883000D03*
X151638000Y-72263000D03*
X151638000Y-79883000D03*
X149098000Y-72263000D03*
X154178000Y-79883000D03*
X146558000Y-72263000D03*
X156718000Y-79883000D03*
X144018000Y-72263000D03*
X159258000Y-79883000D03*
X141478000Y-72263000D03*
X161798000Y-79883000D03*
X138938000Y-72263000D03*
X164338000Y-79883000D03*
X136398000Y-72263000D03*
%TD*%
%TO.C,UC5*%
X141478000Y-84709000D03*
X164338000Y-92329000D03*
X144018000Y-84709000D03*
X161798000Y-92329000D03*
X146558000Y-84709000D03*
X159258000Y-92329000D03*
X149098000Y-84709000D03*
X156718000Y-92329000D03*
X151638000Y-84709000D03*
X154178000Y-92329000D03*
X154178000Y-84709000D03*
X151638000Y-92329000D03*
X156718000Y-84709000D03*
X149098000Y-92329000D03*
X159258000Y-84709000D03*
X146558000Y-92329000D03*
X161798000Y-84709000D03*
X144018000Y-92329000D03*
X164338000Y-84709000D03*
D11*
X141478000Y-92329000D03*
%TD*%
%TO.C,UC7*%
X141478000Y-113919000D03*
D10*
X164338000Y-106299000D03*
X144018000Y-113919000D03*
X161798000Y-106299000D03*
X146558000Y-113919000D03*
X159258000Y-106299000D03*
X149098000Y-113919000D03*
X156718000Y-106299000D03*
X151638000Y-113919000D03*
X154178000Y-106299000D03*
X154178000Y-113919000D03*
X151638000Y-106299000D03*
X156718000Y-113919000D03*
X149098000Y-106299000D03*
X159258000Y-113919000D03*
X146558000Y-106299000D03*
X161798000Y-113919000D03*
X144018000Y-106299000D03*
X164338000Y-113919000D03*
X141478000Y-106299000D03*
%TD*%
%TO.C,UC8*%
X141478000Y-121539000D03*
X164338000Y-129159000D03*
X144018000Y-121539000D03*
X161798000Y-129159000D03*
X146558000Y-121539000D03*
X159258000Y-129159000D03*
X149098000Y-121539000D03*
X156718000Y-129159000D03*
X151638000Y-121539000D03*
X154178000Y-129159000D03*
X154178000Y-121539000D03*
X151638000Y-129159000D03*
X156718000Y-121539000D03*
X149098000Y-129159000D03*
X159258000Y-121539000D03*
X146558000Y-129159000D03*
X161798000Y-121539000D03*
X144018000Y-129159000D03*
X164338000Y-121539000D03*
D11*
X141478000Y-129159000D03*
%TD*%
%TO.C,UC9*%
X141478000Y-141351000D03*
D10*
X164338000Y-133731000D03*
X144018000Y-141351000D03*
X161798000Y-133731000D03*
X146558000Y-141351000D03*
X159258000Y-133731000D03*
X149098000Y-141351000D03*
X156718000Y-133731000D03*
X151638000Y-141351000D03*
X154178000Y-133731000D03*
X154178000Y-141351000D03*
X151638000Y-133731000D03*
X156718000Y-141351000D03*
X149098000Y-133731000D03*
X159258000Y-141351000D03*
X146558000Y-133731000D03*
X161798000Y-141351000D03*
X144018000Y-133731000D03*
X164338000Y-141351000D03*
X141478000Y-133731000D03*
%TD*%
%TO.C,UD1*%
X171831000Y-37592000D03*
X199771000Y-45212000D03*
X174371000Y-37592000D03*
X197231000Y-45212000D03*
X176911000Y-37592000D03*
X194691000Y-45212000D03*
X179451000Y-37592000D03*
X192151000Y-45212000D03*
X181991000Y-37592000D03*
X189611000Y-45212000D03*
X184531000Y-37592000D03*
X187071000Y-45212000D03*
X187071000Y-37592000D03*
X184531000Y-45212000D03*
X189611000Y-37592000D03*
X181991000Y-45212000D03*
X192151000Y-37592000D03*
X179451000Y-45212000D03*
X194691000Y-37592000D03*
X176911000Y-45212000D03*
X197231000Y-37592000D03*
X174371000Y-45212000D03*
X199771000Y-37592000D03*
D11*
X171831000Y-45212000D03*
%TD*%
%TO.C,UD2*%
X171831000Y-56515000D03*
D10*
X199771000Y-48895000D03*
X174371000Y-56515000D03*
X197231000Y-48895000D03*
X176911000Y-56515000D03*
X194691000Y-48895000D03*
X179451000Y-56515000D03*
X192151000Y-48895000D03*
X181991000Y-56515000D03*
X189611000Y-48895000D03*
X184531000Y-56515000D03*
X187071000Y-48895000D03*
X187071000Y-56515000D03*
X184531000Y-48895000D03*
X189611000Y-56515000D03*
X181991000Y-48895000D03*
X192151000Y-56515000D03*
X179451000Y-48895000D03*
X194691000Y-56515000D03*
X176911000Y-48895000D03*
X197231000Y-56515000D03*
X174371000Y-48895000D03*
X199771000Y-56515000D03*
X171831000Y-48895000D03*
%TD*%
D11*
%TO.C,UD3*%
X171831000Y-67945000D03*
D10*
X194691000Y-60325000D03*
X174371000Y-67945000D03*
X192151000Y-60325000D03*
X176911000Y-67945000D03*
X189611000Y-60325000D03*
X179451000Y-67945000D03*
X187071000Y-60325000D03*
X181991000Y-67945000D03*
X184531000Y-60325000D03*
X184531000Y-67945000D03*
X181991000Y-60325000D03*
X187071000Y-67945000D03*
X179451000Y-60325000D03*
X189611000Y-67945000D03*
X176911000Y-60325000D03*
X192151000Y-67945000D03*
X174371000Y-60325000D03*
X194691000Y-67945000D03*
X171831000Y-60325000D03*
%TD*%
%TO.C,UD5*%
X171831000Y-84709000D03*
X199771000Y-92329000D03*
X174371000Y-84709000D03*
X197231000Y-92329000D03*
X176911000Y-84709000D03*
X194691000Y-92329000D03*
X179451000Y-84709000D03*
X192151000Y-92329000D03*
X181991000Y-84709000D03*
X189611000Y-92329000D03*
X184531000Y-84709000D03*
X187071000Y-92329000D03*
X187071000Y-84709000D03*
X184531000Y-92329000D03*
X189611000Y-84709000D03*
X181991000Y-92329000D03*
X192151000Y-84709000D03*
X179451000Y-92329000D03*
X194691000Y-84709000D03*
X176911000Y-92329000D03*
X197231000Y-84709000D03*
X174371000Y-92329000D03*
X199771000Y-84709000D03*
D11*
X171831000Y-92329000D03*
%TD*%
%TO.C,UD7*%
X171704000Y-113919000D03*
D10*
X194564000Y-106299000D03*
X174244000Y-113919000D03*
X192024000Y-106299000D03*
X176784000Y-113919000D03*
X189484000Y-106299000D03*
X179324000Y-113919000D03*
X186944000Y-106299000D03*
X181864000Y-113919000D03*
X184404000Y-106299000D03*
X184404000Y-113919000D03*
X181864000Y-106299000D03*
X186944000Y-113919000D03*
X179324000Y-106299000D03*
X189484000Y-113919000D03*
X176784000Y-106299000D03*
X192024000Y-113919000D03*
X174244000Y-106299000D03*
X194564000Y-113919000D03*
X171704000Y-106299000D03*
%TD*%
%TO.C,UD8*%
X171704000Y-121539000D03*
X194564000Y-129159000D03*
X174244000Y-121539000D03*
X192024000Y-129159000D03*
X176784000Y-121539000D03*
X189484000Y-129159000D03*
X179324000Y-121539000D03*
X186944000Y-129159000D03*
X181864000Y-121539000D03*
X184404000Y-129159000D03*
X184404000Y-121539000D03*
X181864000Y-129159000D03*
X186944000Y-121539000D03*
X179324000Y-129159000D03*
X189484000Y-121539000D03*
X176784000Y-129159000D03*
X192024000Y-121539000D03*
X174244000Y-129159000D03*
X194564000Y-121539000D03*
D11*
X171704000Y-129159000D03*
%TD*%
%TO.C,UD9*%
X171704000Y-141351000D03*
D10*
X194564000Y-133731000D03*
X174244000Y-141351000D03*
X192024000Y-133731000D03*
X176784000Y-141351000D03*
X189484000Y-133731000D03*
X179324000Y-141351000D03*
X186944000Y-133731000D03*
X181864000Y-141351000D03*
X184404000Y-133731000D03*
X184404000Y-141351000D03*
X181864000Y-133731000D03*
X186944000Y-141351000D03*
X179324000Y-133731000D03*
X189484000Y-141351000D03*
X176784000Y-133731000D03*
X192024000Y-141351000D03*
X174244000Y-133731000D03*
X194564000Y-141351000D03*
X171704000Y-133731000D03*
%TD*%
D13*
%TO.C,W1*%
X205486000Y-115570000D03*
D14*
X208026000Y-115570000D03*
%TD*%
%TO.C,W2*%
X137668000Y-38100000D03*
D13*
X135128000Y-38100000D03*
%TD*%
%TO.C,W3*%
X135128000Y-47371000D03*
D14*
X137668000Y-47371000D03*
%TD*%
M02*
