M48
; DRILL file {KiCad (5.1.6)-1} date 09/06/22 14:02:28
; FORMAT={-:-/ absolute / metric / decimal}
; #@! TF.CreationDate,2022-09-06T14:02:28-04:00
; #@! TF.GenerationSoftware,Kicad,Pcbnew,(5.1.6)-1
; #@! TF.FileFunction,Plated,1,4,PTH
FMAT,2
METRIC
T1C0.400
T2C0.800
T3C0.810
T4C1.000
T5C1.854
%
G90
G05
T1
X73.152Y-125.857
X74.108Y-121.27
X74.422Y-118.11
X74.484Y-113.3
X74.512Y-111.875
X75.946Y-114.427
X75.993Y-52.662
X77.78Y-70.702
X78.994Y-89.281
X81.226Y-132.531
X81.407Y-125.095
X82.677Y-48.768
X83.312Y-61.849
X84.074Y-112.903
X85.498Y-127.094
X87.63Y-112.903
X88.392Y-77.343
X88.471Y-88.363
X89.019Y-89.669
X89.027Y-56.515
X94.647Y-70.625
X95.504Y-56.642
X97.028Y-80.391
X97.409Y-73.787
X98.121Y-52.308
X100.774Y-81.383
X102.4Y-98.578
X103.273Y-73.908
X110.744Y-43.18
X111.662Y-67.782
X113.094Y-58.374
X114.808Y-43.307
X118.706Y-74.869
X119.38Y-112.903
X119.444Y-42.64
X120.001Y-59.824
X122.928Y-64.748
X123.063Y-87.884
X126.873Y-113.411
X127.363Y-44.328
X127.508Y-60.96
X130.151Y-60.579
X131.929Y-100.069
X132.715Y-64.516
X135.105Y-107.264
X135.184Y-65.093
X135.636Y-113.538
X136.587Y-69.028
X136.748Y-106.236
X137.291Y-131.13
X137.592Y-95.33
X139.673Y-123.813
X139.911Y-94.535
X140.013Y-68.462
X140.059Y-140.226
X141.334Y-89.874
X141.432Y-93.77
X141.579Y-123.909
X142.24Y-137.033
X142.423Y-102.105
X143.29Y-45.223
X144.696Y-58.374
X145.433Y-88.698
X145.788Y-58.254
X146.022Y-109.869
X147.105Y-75.731
X147.696Y-54.735
X147.916Y-38.76
X148.058Y-68.856
X148.428Y-143.346
X148.717Y-136.398
X151.536Y-93.958
X152.874Y-69.386
X153.053Y-110.893
X153.543Y-147.828
X154.305Y-64.135
X154.432Y-136.144
X156.0Y-68.658
X156.484Y-93.733
X157.099Y-54.356
X157.11Y-56.381
X157.678Y-111.353
X157.997Y-131.191
X159.822Y-89.469
X160.02Y-109.982
X161.671Y-55.118
X161.798Y-102.87
X162.941Y-136.144
X163.037Y-58.607
X163.195Y-103.251
X164.084Y-102.489
X165.301Y-53.602
X165.861Y-59.332
X165.861Y-90.206
X165.959Y-57.501
X166.377Y-95.523
X167.41Y-56.956
X167.988Y-101.48
X168.402Y-39.624
X168.479Y-58.575
X168.538Y-55.396
X168.833Y-116.096
X168.89Y-96.111
X168.936Y-66.574
X169.666Y-46.407
X169.865Y-83.683
X169.884Y-54.054
X169.974Y-81.403
X170.013Y-126.4
X171.714Y-74.888
X174.371Y-62.44
X175.63Y-85.67
X177.038Y-111.506
X179.324Y-82.042
X180.606Y-93.809
X182.88Y-51.202
X183.002Y-139.344
X183.168Y-63.583
X183.227Y-89.044
X183.86Y-54.186
X185.188Y-108.984
X185.801Y-95.111
X185.977Y-119.297
X186.345Y-109.081
X187.551Y-110.165
X187.673Y-139.68
X187.832Y-101.277
X187.838Y-95.836
X189.23Y-111.633
X189.25Y-69.83
X189.738Y-97.282
X192.191Y-125.809
X192.405Y-75.565
X192.79Y-53.609
X193.004Y-54.609
X193.738Y-103.873
X194.564Y-65.278
X195.961Y-85.952
X196.088Y-97.536
X197.231Y-60.198
X197.693Y-82.857
X197.729Y-130.561
X197.921Y-86.797
X197.978Y-88.907
X198.362Y-50.929
X199.2Y-81.372
X199.21Y-80.336
X199.46Y-50.769
X199.512Y-125.32
X199.841Y-132.305
X200.589Y-123.393
X200.781Y-125.065
X200.896Y-40.448
X201.63Y-44.868
X201.634Y-47.553
X203.224Y-117.659
X203.454Y-55.118
X203.869Y-111.304
X204.978Y-70.485
X207.854Y-44.242
T2
X114.3Y-148.082
X119.393Y-148.07
X167.64Y-148.082
X185.42Y-147.955
X190.5Y-147.955
X141.605Y-117.221
X144.145Y-117.221
X146.685Y-117.221
X149.225Y-117.221
X151.765Y-117.221
X154.305Y-117.221
X156.845Y-117.221
X159.385Y-117.221
X161.925Y-117.221
X164.465Y-117.221
X171.831Y-72.39
X171.831Y-80.01
X174.371Y-72.39
X174.371Y-80.01
X176.911Y-72.39
X176.911Y-80.01
X179.451Y-72.39
X179.451Y-80.01
X181.991Y-72.39
X181.991Y-80.01
X184.531Y-72.39
X184.531Y-80.01
X187.071Y-72.39
X187.071Y-80.01
X189.611Y-72.39
X189.611Y-80.01
X192.151Y-72.39
X192.151Y-80.01
X194.691Y-72.39
X194.691Y-80.01
X171.831Y-37.592
X171.831Y-45.212
X174.371Y-37.592
X174.371Y-45.212
X176.911Y-37.592
X176.911Y-45.212
X179.451Y-37.592
X179.451Y-45.212
X181.991Y-37.592
X181.991Y-45.212
X184.531Y-37.592
X184.531Y-45.212
X187.071Y-37.592
X187.071Y-45.212
X189.611Y-37.592
X189.611Y-45.212
X192.151Y-37.592
X192.151Y-45.212
X194.691Y-37.592
X194.691Y-45.212
X197.231Y-37.592
X197.231Y-45.212
X199.771Y-37.592
X199.771Y-45.212
X77.47Y-109.347
X77.47Y-116.967
X80.01Y-109.347
X80.01Y-116.967
X82.55Y-109.347
X82.55Y-116.967
X85.09Y-109.347
X85.09Y-116.967
X87.63Y-109.347
X87.63Y-116.967
X90.17Y-109.347
X90.17Y-116.967
X92.71Y-109.347
X92.71Y-116.967
X95.25Y-109.347
X95.25Y-116.967
X97.79Y-109.347
X97.79Y-116.967
X100.33Y-109.347
X100.33Y-116.967
X77.47Y-121.539
X77.47Y-129.159
X80.01Y-121.539
X80.01Y-129.159
X82.55Y-121.539
X82.55Y-129.159
X85.09Y-121.539
X85.09Y-129.159
X87.63Y-121.539
X87.63Y-129.159
X90.17Y-121.539
X90.17Y-129.159
X92.71Y-121.539
X92.71Y-129.159
X95.25Y-121.539
X95.25Y-129.159
X97.79Y-121.539
X97.79Y-129.159
X100.33Y-121.539
X100.33Y-129.159
X77.47Y-84.709
X77.47Y-92.329
X80.01Y-84.709
X80.01Y-92.329
X82.55Y-84.709
X82.55Y-92.329
X85.09Y-84.709
X85.09Y-92.329
X87.63Y-84.709
X87.63Y-92.329
X90.17Y-84.709
X90.17Y-92.329
X92.71Y-84.709
X92.71Y-92.329
X95.25Y-84.709
X95.25Y-92.329
X97.79Y-84.709
X97.79Y-92.329
X100.33Y-84.709
X100.33Y-92.329
X141.478Y-121.539
X141.478Y-129.159
X144.018Y-121.539
X144.018Y-129.159
X146.558Y-121.539
X146.558Y-129.159
X149.098Y-121.539
X149.098Y-129.159
X151.638Y-121.539
X151.638Y-129.159
X154.178Y-121.539
X154.178Y-129.159
X156.718Y-121.539
X156.718Y-129.159
X159.258Y-121.539
X159.258Y-129.159
X161.798Y-121.539
X161.798Y-129.159
X164.338Y-121.539
X164.338Y-129.159
X109.093Y-109.347
X109.093Y-116.967
X111.633Y-109.347
X111.633Y-116.967
X114.173Y-109.347
X114.173Y-116.967
X116.713Y-109.347
X116.713Y-116.967
X119.253Y-109.347
X119.253Y-116.967
X121.793Y-109.347
X121.793Y-116.967
X124.333Y-109.347
X124.333Y-116.967
X126.873Y-109.347
X126.873Y-116.967
X129.413Y-109.347
X129.413Y-116.967
X131.953Y-109.347
X131.953Y-116.967
X171.704Y-106.299
X171.704Y-113.919
X174.244Y-106.299
X174.244Y-113.919
X176.784Y-106.299
X176.784Y-113.919
X179.324Y-106.299
X179.324Y-113.919
X181.864Y-106.299
X181.864Y-113.919
X184.404Y-106.299
X184.404Y-113.919
X186.944Y-106.299
X186.944Y-113.919
X189.484Y-106.299
X189.484Y-113.919
X192.024Y-106.299
X192.024Y-113.919
X194.564Y-106.299
X194.564Y-113.919
X109.093Y-97.028
X109.093Y-104.648
X111.633Y-97.028
X111.633Y-104.648
X114.173Y-97.028
X114.173Y-104.648
X116.713Y-97.028
X116.713Y-104.648
X119.253Y-97.028
X119.253Y-104.648
X121.793Y-97.028
X121.793Y-104.648
X124.333Y-97.028
X124.333Y-104.648
X126.873Y-97.028
X126.873Y-104.648
X129.413Y-97.028
X129.413Y-104.648
X131.953Y-97.028
X131.953Y-104.648
X77.47Y-43.942
X77.47Y-46.482
X77.47Y-49.022
X77.47Y-51.562
X77.47Y-54.102
X77.47Y-56.642
X77.47Y-59.182
X77.47Y-61.722
X77.47Y-64.262
X80.01Y-41.402
X80.01Y-43.942
X80.01Y-46.482
X80.01Y-49.022
X80.01Y-51.562
X80.01Y-54.102
X80.01Y-56.642
X80.01Y-59.182
X80.01Y-61.722
X80.01Y-64.262
X80.01Y-66.802
X82.55Y-41.402
X82.55Y-43.942
X82.55Y-64.262
X82.55Y-66.802
X85.09Y-41.402
X85.09Y-43.942
X85.09Y-64.262
X85.09Y-66.802
X87.63Y-41.402
X87.63Y-43.942
X87.63Y-64.262
X87.63Y-66.802
X90.17Y-41.402
X90.17Y-43.942
X90.17Y-64.262
X90.17Y-66.802
X92.71Y-41.402
X92.71Y-43.942
X92.71Y-64.262
X92.71Y-66.802
X95.25Y-41.402
X95.25Y-43.942
X95.25Y-64.262
X95.25Y-66.802
X97.79Y-41.402
X97.79Y-43.942
X97.79Y-64.262
X97.79Y-66.802
X100.33Y-41.402
X100.33Y-43.942
X100.33Y-46.482
X100.33Y-49.022
X100.33Y-51.562
X100.33Y-54.102
X100.33Y-56.642
X100.33Y-59.182
X100.33Y-61.722
X100.33Y-64.262
X100.33Y-66.802
X102.87Y-43.942
X102.87Y-46.482
X102.87Y-49.022
X102.87Y-51.562
X102.87Y-54.102
X102.87Y-56.642
X102.87Y-59.182
X102.87Y-61.722
X102.87Y-64.262
X75.184Y-73.152
X82.804Y-73.152
X200.025Y-141.304
X200.025Y-146.304
X136.398Y-72.263
X136.398Y-79.883
X138.938Y-72.263
X138.938Y-79.883
X141.478Y-72.263
X141.478Y-79.883
X144.018Y-72.263
X144.018Y-79.883
X146.558Y-72.263
X146.558Y-79.883
X149.098Y-72.263
X149.098Y-79.883
X151.638Y-72.263
X151.638Y-79.883
X154.178Y-72.263
X154.178Y-79.883
X156.718Y-72.263
X156.718Y-79.883
X159.258Y-72.263
X159.258Y-79.883
X161.798Y-72.263
X161.798Y-79.883
X164.338Y-72.263
X164.338Y-79.883
X109.093Y-84.709
X109.093Y-92.329
X111.633Y-84.709
X111.633Y-92.329
X114.173Y-84.709
X114.173Y-92.329
X116.713Y-84.709
X116.713Y-92.329
X119.253Y-84.709
X119.253Y-92.329
X121.793Y-84.709
X121.793Y-92.329
X124.333Y-84.709
X124.333Y-92.329
X126.873Y-84.709
X126.873Y-92.329
X129.413Y-84.709
X129.413Y-92.329
X131.953Y-84.709
X131.953Y-92.329
X171.704Y-121.539
X171.704Y-129.159
X174.244Y-121.539
X174.244Y-129.159
X176.784Y-121.539
X176.784Y-129.159
X179.324Y-121.539
X179.324Y-129.159
X181.864Y-121.539
X181.864Y-129.159
X184.404Y-121.539
X184.404Y-129.159
X186.944Y-121.539
X186.944Y-129.159
X189.484Y-121.539
X189.484Y-129.159
X192.024Y-121.539
X192.024Y-129.159
X194.564Y-121.539
X194.564Y-129.159
X171.704Y-133.731
X171.704Y-141.351
X174.244Y-133.731
X174.244Y-141.351
X176.784Y-133.731
X176.784Y-141.351
X179.324Y-133.731
X179.324Y-141.351
X181.864Y-133.731
X181.864Y-141.351
X184.404Y-133.731
X184.404Y-141.351
X186.944Y-133.731
X186.944Y-141.351
X189.484Y-133.731
X189.484Y-141.351
X192.024Y-133.731
X192.024Y-141.351
X194.564Y-133.731
X194.564Y-141.351
X141.478Y-39.624
X141.478Y-47.244
X144.018Y-39.624
X144.018Y-47.244
X146.558Y-39.624
X146.558Y-47.244
X149.098Y-39.624
X149.098Y-47.244
X151.638Y-39.624
X151.638Y-47.244
X154.178Y-39.624
X154.178Y-47.244
X156.718Y-39.624
X156.718Y-47.244
X159.258Y-39.624
X159.258Y-47.244
X161.798Y-39.624
X161.798Y-47.244
X164.338Y-39.624
X164.338Y-47.244
X77.47Y-133.731
X77.47Y-141.351
X80.01Y-133.731
X80.01Y-141.351
X82.55Y-133.731
X82.55Y-141.351
X85.09Y-133.731
X85.09Y-141.351
X87.63Y-133.731
X87.63Y-141.351
X90.17Y-133.731
X90.17Y-141.351
X92.71Y-133.731
X92.71Y-141.351
X95.25Y-133.731
X95.25Y-141.351
X97.79Y-133.731
X97.79Y-141.351
X100.33Y-133.731
X100.33Y-141.351
X71.882Y-141.304
X71.882Y-146.304
X109.093Y-72.263
X109.093Y-79.883
X111.633Y-72.263
X111.633Y-79.883
X114.173Y-72.263
X114.173Y-79.883
X116.713Y-72.263
X116.713Y-79.883
X119.253Y-72.263
X119.253Y-79.883
X121.793Y-72.263
X121.793Y-79.883
X124.333Y-72.263
X124.333Y-79.883
X126.873Y-72.263
X126.873Y-79.883
X129.413Y-72.263
X129.413Y-79.883
X131.953Y-72.263
X131.953Y-79.883
X171.704Y-117.221
X174.244Y-117.221
X176.784Y-117.221
X179.324Y-117.221
X181.864Y-117.221
X184.404Y-117.221
X186.944Y-117.221
X189.484Y-117.221
X192.024Y-117.221
X194.564Y-117.221
X141.478Y-106.299
X141.478Y-113.919
X144.018Y-106.299
X144.018Y-113.919
X146.558Y-106.299
X146.558Y-113.919
X149.098Y-106.299
X149.098Y-113.919
X151.638Y-106.299
X151.638Y-113.919
X154.178Y-106.299
X154.178Y-113.919
X156.718Y-106.299
X156.718Y-113.919
X159.258Y-106.299
X159.258Y-113.919
X161.798Y-106.299
X161.798Y-113.919
X164.338Y-106.299
X164.338Y-113.919
X113.538Y-51.308
X113.538Y-66.548
X116.078Y-51.308
X116.078Y-66.548
X118.618Y-51.308
X118.618Y-66.548
X121.158Y-51.308
X121.158Y-66.548
X123.698Y-51.308
X123.698Y-66.548
X126.238Y-51.308
X126.238Y-66.548
X128.778Y-51.308
X128.778Y-66.548
X131.318Y-51.308
X131.318Y-66.548
X133.858Y-51.308
X133.858Y-66.548
X136.398Y-51.308
X136.398Y-66.548
X138.938Y-51.308
X138.938Y-66.548
X141.478Y-51.308
X141.478Y-66.548
X144.018Y-51.308
X144.018Y-66.548
X146.558Y-51.308
X146.558Y-66.548
X149.098Y-51.308
X149.098Y-66.548
X151.638Y-51.308
X151.638Y-66.548
X154.178Y-51.308
X154.178Y-66.548
X156.718Y-51.308
X156.718Y-66.548
X159.258Y-51.308
X159.258Y-66.548
X161.798Y-51.308
X161.798Y-66.548
X202.847Y-121.285
X202.847Y-123.825
X202.847Y-126.365
X202.847Y-128.905
X210.947Y-121.285
X210.947Y-123.825
X210.947Y-126.365
X210.947Y-128.905
X109.093Y-133.731
X109.093Y-141.351
X111.633Y-133.731
X111.633Y-141.351
X114.173Y-133.731
X114.173Y-141.351
X116.713Y-133.731
X116.713Y-141.351
X119.253Y-133.731
X119.253Y-141.351
X121.793Y-133.731
X121.793Y-141.351
X124.333Y-133.731
X124.333Y-141.351
X126.873Y-133.731
X126.873Y-141.351
X129.413Y-133.731
X129.413Y-141.351
X131.953Y-133.731
X131.953Y-141.351
X141.478Y-84.709
X141.478Y-92.329
X144.018Y-84.709
X144.018Y-92.329
X146.558Y-84.709
X146.558Y-92.329
X149.098Y-84.709
X149.098Y-92.329
X151.638Y-84.709
X151.638Y-92.329
X154.178Y-84.709
X154.178Y-92.329
X156.718Y-84.709
X156.718Y-92.329
X159.258Y-84.709
X159.258Y-92.329
X161.798Y-84.709
X161.798Y-92.329
X164.338Y-84.709
X164.338Y-92.329
X171.831Y-84.709
X171.831Y-92.329
X174.371Y-84.709
X174.371Y-92.329
X176.911Y-84.709
X176.911Y-92.329
X179.451Y-84.709
X179.451Y-92.329
X181.991Y-84.709
X181.991Y-92.329
X184.531Y-84.709
X184.531Y-92.329
X187.071Y-84.709
X187.071Y-92.329
X189.611Y-84.709
X189.611Y-92.329
X192.151Y-84.709
X192.151Y-92.329
X194.691Y-84.709
X194.691Y-92.329
X197.231Y-84.709
X197.231Y-92.329
X199.771Y-84.709
X199.771Y-92.329
X110.998Y-39.624
X110.998Y-47.244
X113.538Y-39.624
X113.538Y-47.244
X116.078Y-39.624
X116.078Y-47.244
X118.618Y-39.624
X118.618Y-47.244
X121.158Y-39.624
X121.158Y-47.244
X123.698Y-39.624
X123.698Y-47.244
X126.238Y-39.624
X126.238Y-47.244
X128.778Y-39.624
X128.778Y-47.244
X131.318Y-39.624
X131.318Y-47.244
X206.883Y-37.719
X206.883Y-40.259
X206.883Y-42.799
X206.883Y-45.339
X206.883Y-47.879
X206.883Y-50.419
X206.883Y-52.959
X206.883Y-55.499
X206.883Y-58.039
X206.883Y-60.579
X171.831Y-60.325
X171.831Y-67.945
X174.371Y-60.325
X174.371Y-67.945
X176.911Y-60.325
X176.911Y-67.945
X179.451Y-60.325
X179.451Y-67.945
X181.991Y-60.325
X181.991Y-67.945
X184.531Y-60.325
X184.531Y-67.945
X187.071Y-60.325
X187.071Y-67.945
X189.611Y-60.325
X189.611Y-67.945
X192.151Y-60.325
X192.151Y-67.945
X194.691Y-60.325
X194.691Y-67.945
X141.478Y-133.731
X141.478Y-141.351
X144.018Y-133.731
X144.018Y-141.351
X146.558Y-133.731
X146.558Y-141.351
X149.098Y-133.731
X149.098Y-141.351
X151.638Y-133.731
X151.638Y-141.351
X154.178Y-133.731
X154.178Y-141.351
X156.718Y-133.731
X156.718Y-141.351
X159.258Y-133.731
X159.258Y-141.351
X161.798Y-133.731
X161.798Y-141.351
X164.338Y-133.731
X164.338Y-141.351
X171.831Y-48.895
X171.831Y-56.515
X174.371Y-48.895
X174.371Y-56.515
X176.911Y-48.895
X176.911Y-56.515
X179.451Y-48.895
X179.451Y-56.515
X181.991Y-48.895
X181.991Y-56.515
X184.531Y-48.895
X184.531Y-56.515
X187.071Y-48.895
X187.071Y-56.515
X189.611Y-48.895
X189.611Y-56.515
X192.151Y-48.895
X192.151Y-56.515
X194.691Y-48.895
X194.691Y-56.515
X197.231Y-48.895
X197.231Y-56.515
X199.771Y-48.895
X199.771Y-56.515
X109.093Y-121.539
X109.093Y-129.159
X111.633Y-121.539
X111.633Y-129.159
X114.173Y-121.539
X114.173Y-129.159
X116.713Y-121.539
X116.713Y-129.159
X119.253Y-121.539
X119.253Y-129.159
X121.793Y-121.539
X121.793Y-129.159
X124.333Y-121.539
X124.333Y-129.159
X126.873Y-121.539
X126.873Y-129.159
X129.413Y-121.539
X129.413Y-129.159
X131.953Y-121.539
X131.953Y-129.159
X77.47Y-97.028
X77.47Y-104.648
X80.01Y-97.028
X80.01Y-104.648
X82.55Y-97.028
X82.55Y-104.648
X85.09Y-97.028
X85.09Y-104.648
X87.63Y-97.028
X87.63Y-104.648
X90.17Y-97.028
X90.17Y-104.648
X92.71Y-97.028
X92.71Y-104.648
X95.25Y-97.028
X95.25Y-104.648
X97.79Y-97.028
X97.79Y-104.648
X100.33Y-97.028
X100.33Y-104.648
T3
X168.148Y-46.355
X168.148Y-48.895
X104.648Y-94.488
X104.648Y-97.028
X168.021Y-133.731
X168.021Y-136.271
X168.148Y-60.325
X168.148Y-62.865
X104.648Y-82.042
X104.648Y-84.582
X136.779Y-133.858
X136.779Y-136.398
X109.093Y-53.086
X109.093Y-55.626
X136.779Y-121.666
X136.779Y-124.206
X71.882Y-130.048
X71.882Y-132.588
X168.021Y-121.666
X168.021Y-124.206
X104.648Y-131.191
X104.648Y-133.731
X77.597Y-78.613
X80.137Y-78.613
X104.648Y-118.999
X104.648Y-121.539
X168.021Y-84.836
X168.021Y-87.376
X168.021Y-72.39
X168.021Y-74.93
X104.648Y-106.68
X104.648Y-109.22
X109.093Y-65.659
X109.093Y-68.199
T4
X135.128Y-38.1
X137.668Y-38.1
X205.486Y-115.57
X208.026Y-115.57
X135.128Y-47.371
X137.668Y-47.371
X136.144Y-98.044
X136.144Y-100.584
X138.684Y-98.044
X138.684Y-100.584
X141.224Y-98.044
X141.224Y-100.584
X143.764Y-98.044
X143.764Y-100.584
X146.304Y-98.044
X146.304Y-100.584
X148.844Y-98.044
X148.844Y-100.584
X151.384Y-98.044
X151.384Y-100.584
X153.924Y-98.044
X153.924Y-100.584
X156.464Y-98.044
X156.464Y-100.584
X159.004Y-98.044
X159.004Y-100.584
X161.544Y-98.044
X161.544Y-100.584
X164.084Y-98.044
X164.084Y-100.584
X166.624Y-98.044
X166.624Y-100.584
X169.164Y-98.044
X169.164Y-100.584
X171.704Y-98.044
X171.704Y-100.584
X174.244Y-98.044
X174.244Y-100.584
X176.784Y-98.044
X176.784Y-100.584
X179.324Y-98.044
X179.324Y-100.584
X181.864Y-98.044
X181.864Y-100.584
X184.404Y-98.044
X184.404Y-100.584
T5
X199.136Y-97.026
X199.136Y-101.726
X199.136Y-106.426
X202.946Y-97.026
X202.946Y-101.726
X202.946Y-106.426
X215.646Y-99.186
X215.646Y-104.266
T0
M30
